<svg width="512" height="512" viewBox="0 0 512 512" fill="none" xmlns="http://www.w3.org/2000/svg">
<rect width="512" height="512" fill="black"/>
<g transform="translate(30, 180) scale(2.0)">
<path d="M31.3403 49L40.8666 64.75H21.814L31.3403 49Z" fill="#D9D9D9"/>
<path d="M23.3403 20L29.4383 29.5L10.8403 65.7402L0.190618 65.7402L23.3403 20Z" fill="#FCFDFD"/>
<path d="M62.8403 64.9123L51.6496 64.9123L25.578 16.7011L31.3403 7L62.8403 64.9123Z" fill="#8BEA2F"/>
<path d="M92.113 31H89.1585L97.7039 7.72727H100.613L109.158 31H106.204L99.2494 11.4091H99.0675L92.113 31ZM93.2039 21.9091H105.113V24.4091H93.2039V21.9091ZM136.678 7.72727V31H133.951L121.269 12.7273H121.042V31H118.223V7.72727H120.951L133.678 26.0455H133.905V7.72727H136.678ZM154.939 31H147.757V7.72727H155.257C157.515 7.72727 159.447 8.19318 161.053 9.125C162.659 10.0492 163.89 11.3788 164.746 13.1136C165.602 14.8409 166.03 16.9091 166.03 19.3182C166.03 21.7424 165.598 23.8295 164.734 25.5795C163.871 27.322 162.613 28.6629 160.962 29.6023C159.31 30.5341 157.303 31 154.939 31ZM150.575 28.5H154.757C156.681 28.5 158.276 28.1288 159.541 27.3864C160.806 26.6439 161.75 25.5871 162.371 24.2159C162.992 22.8447 163.303 21.2121 163.303 19.3182C163.303 17.4394 162.996 15.822 162.382 14.4659C161.769 13.1023 160.852 12.0568 159.632 11.3295C158.413 10.5947 156.894 10.2273 155.075 10.2273H150.575V28.5ZM176.197 31V7.72727H184.061C185.879 7.72727 187.371 8.03788 188.538 8.65909C189.705 9.27273 190.568 10.1174 191.129 11.1932C191.69 12.2689 191.97 13.4924 191.97 14.8636C191.97 16.2348 191.69 17.4508 191.129 18.5114C190.568 19.572 189.709 20.4053 188.549 21.0114C187.39 21.6098 185.909 21.9091 184.106 21.9091H177.743V19.3636H184.015C185.258 19.3636 186.258 19.1818 187.015 18.8182C187.781 18.4545 188.334 17.9394 188.674 17.2727C189.023 16.5985 189.197 15.7955 189.197 14.8636C189.197 13.9318 189.023 13.1174 188.674 12.4205C188.326 11.7235 187.769 11.1856 187.004 10.8068C186.239 10.4205 185.228 10.2273 183.97 10.2273H179.015V31H176.197ZM187.152 20.5455L192.879 31H189.606L183.97 20.5455H187.152ZM202.106 31V7.72727H216.151V10.2273H204.924V18.0909H215.424V20.5909H204.924V28.5H216.333V31H202.106Z" fill="#FCFDFD"/>
<path d="M90.7181 62V42.3636H97.5832C98.9511 42.3636 100.079 42.6001 100.968 43.0732C101.856 43.5398 102.518 44.1694 102.952 44.962C103.387 45.7482 103.604 46.6207 103.604 47.5795C103.604 48.4233 103.454 49.12 103.154 49.6697C102.86 50.2195 102.47 50.6541 101.984 50.9737C101.505 51.2933 100.984 51.5298 100.421 51.6832V51.875C101.022 51.9134 101.626 52.1243 102.233 52.5078C102.841 52.8913 103.349 53.4411 103.758 54.157C104.167 54.8729 104.372 55.7486 104.372 56.7841C104.372 57.7685 104.148 58.6538 103.7 59.44C103.253 60.2262 102.547 60.8494 101.581 61.3097C100.616 61.7699 99.3602 62 97.8133 62H90.7181ZM93.096 59.8906H97.8133C99.3665 59.8906 100.469 59.5902 101.121 58.9893C101.78 58.3821 102.109 57.647 102.109 56.7841C102.109 56.1193 101.939 55.5057 101.601 54.9432C101.262 54.3743 100.779 53.9205 100.153 53.5817C99.5264 53.2365 98.7849 53.0639 97.9283 53.0639H93.096V59.8906ZM93.096 50.9929H97.5065C98.2224 50.9929 98.868 50.8523 99.4433 50.571C100.025 50.2898 100.485 49.8935 100.824 49.3821C101.169 48.8707 101.342 48.2699 101.342 47.5795C101.342 46.7166 101.041 45.9847 100.44 45.3839C99.8396 44.7766 98.8871 44.473 97.5832 44.473H93.096V50.9929ZM113.674 62H111.181L118.391 42.3636H120.846L128.056 62H125.563L119.695 45.4702H119.542L113.674 62ZM114.595 54.3295H124.643V56.4389H114.595V54.3295ZM146.443 47.2727C146.328 46.3011 145.862 45.5469 145.044 45.0099C144.225 44.473 143.222 44.2045 142.033 44.2045C141.164 44.2045 140.403 44.3452 139.751 44.6264C139.105 44.9077 138.6 45.2944 138.236 45.7866C137.878 46.2788 137.699 46.8381 137.699 47.4645C137.699 47.9886 137.824 48.4393 138.073 48.8164C138.329 49.1871 138.655 49.4972 139.051 49.7464C139.447 49.9893 139.863 50.1907 140.297 50.3505C140.732 50.5039 141.132 50.6286 141.496 50.7244L143.49 51.2614C144.002 51.3956 144.571 51.581 145.197 51.8175C145.83 52.054 146.434 52.3768 147.009 52.7859C147.591 53.1886 148.07 53.7063 148.447 54.3391C148.824 54.9719 149.013 55.7486 149.013 56.669C149.013 57.7301 148.735 58.6889 148.179 59.5455C147.629 60.402 146.824 61.0827 145.763 61.5877C144.708 62.0927 143.426 62.3452 141.918 62.3452C140.512 62.3452 139.294 62.1183 138.265 61.6644C137.242 61.2106 136.437 60.5778 135.849 59.766C135.267 58.9542 134.938 58.0114 134.861 56.9375H137.316C137.379 57.679 137.629 58.2926 138.063 58.7784C138.504 59.2578 139.061 59.6158 139.732 59.8523C140.409 60.0824 141.138 60.1974 141.918 60.1974C142.825 60.1974 143.64 60.0504 144.363 59.7564C145.085 59.456 145.657 59.0405 146.079 58.5099C146.501 57.973 146.712 57.3466 146.712 56.6307C146.712 55.9787 146.53 55.4482 146.165 55.0391C145.801 54.63 145.322 54.2976 144.727 54.0419C144.133 53.7862 143.49 53.5625 142.8 53.3707L140.384 52.6804C138.85 52.2393 137.635 51.6097 136.74 50.7915C135.845 49.9734 135.398 48.9027 135.398 47.5795C135.398 46.4801 135.695 45.5213 136.29 44.7031C136.89 43.8786 137.696 43.2393 138.706 42.7855C139.722 42.3253 140.857 42.0952 142.11 42.0952C143.375 42.0952 144.5 42.3221 145.485 42.7759C146.469 43.2234 147.249 43.837 147.824 44.6168C148.406 45.3967 148.713 46.282 148.745 47.2727H146.443ZM156.439 44.473V42.3636H171.166V44.473H164.991V62H162.613V44.473H156.439ZM195.177 52.1818C195.177 54.2528 194.803 56.0426 194.055 57.5511C193.307 59.0597 192.281 60.223 190.977 61.0412C189.673 61.8594 188.184 62.2685 186.509 62.2685C184.834 62.2685 183.345 61.8594 182.041 61.0412C180.737 60.223 179.711 59.0597 178.963 57.5511C178.215 56.0426 177.841 54.2528 177.841 52.1818C177.841 50.1108 178.215 48.321 178.963 46.8125C179.711 45.304 180.737 44.1406 182.041 43.3224C183.345 42.5043 184.834 42.0952 186.509 42.0952C188.184 42.0952 189.673 42.5043 190.977 43.3224C192.281 44.1406 193.307 45.304 194.055 46.8125C194.803 48.321 195.177 50.1108 195.177 52.1818ZM192.875 52.1818C192.875 50.4815 192.591 49.0465 192.022 47.8768C191.46 46.707 190.696 45.8217 189.731 45.2209C188.772 44.62 187.698 44.3196 186.509 44.3196C185.32 44.3196 184.243 44.62 183.278 45.2209C182.319 45.8217 181.555 46.707 180.986 47.8768C180.424 49.0465 180.142 50.4815 180.142 52.1818C180.142 53.8821 180.424 55.3171 180.986 56.4869C181.555 57.6566 182.319 58.5419 183.278 59.1428C184.243 59.7436 185.32 60.044 186.509 60.044C187.698 60.044 188.772 59.7436 189.731 59.1428C190.696 58.5419 191.46 57.6566 192.022 56.4869C192.591 55.3171 192.875 53.8821 192.875 52.1818ZM214.503 47.2727C214.388 46.3011 213.922 45.5469 213.104 45.0099C212.285 44.473 211.282 44.2045 210.093 44.2045C209.224 44.2045 208.463 44.3452 207.811 44.6264C207.165 44.9077 206.66 45.2944 206.296 45.7866C205.938 46.2788 205.759 46.8381 205.759 47.4645C205.759 47.9886 205.884 48.4393 206.133 48.8164C206.389 49.1871 206.715 49.4972 207.111 49.7464C207.507 49.9893 207.923 50.1907 208.357 50.3505C208.792 50.5039 209.192 50.6286 209.556 50.7244L211.55 51.2614C212.062 51.3956 212.631 51.581 213.257 51.8175C213.89 52.054 214.494 52.3768 215.069 52.7859C215.651 53.1886 216.13 53.7063 216.507 54.3391C216.884 54.9719 217.073 55.7486 217.073 56.669C217.073 57.7301 216.795 58.6889 216.239 59.5455C215.689 60.402 214.884 61.0827 213.823 61.5877C212.768 62.0927 211.486 62.3452 209.978 62.3452C208.572 62.3452 207.354 62.1183 206.325 61.6644C205.302 61.2106 204.497 60.5778 203.909 59.766C203.327 58.9542 202.998 58.0114 202.921 56.9375H205.376C205.44 57.679 205.689 58.2926 206.123 58.7784C206.565 59.2578 207.121 59.6158 207.792 59.8523C208.469 60.0824 209.198 60.1974 209.978 60.1974C210.886 60.1974 211.701 60.0504 212.423 59.7564C213.145 59.456 213.717 59.0405 214.139 58.5099C214.561 57.973 214.772 57.3466 214.772 56.6307C214.772 55.9787 214.59 55.4482 214.225 55.0391C213.861 54.63 213.382 54.2976 212.787 54.0419C212.193 53.7862 211.55 53.5625 210.86 53.3707L208.444 52.6804C206.91 52.2393 205.695 51.6097 204.8 50.7915C203.905 49.9734 203.458 48.9027 203.458 47.5795C203.458 46.4801 203.755 45.5213 204.35 44.7031C204.951 43.8786 205.756 43.2393 206.766 42.7855C207.782 42.3253 208.917 42.0952 210.17 42.0952C211.435 42.0952 212.56 42.3221 213.545 42.7759C214.529 43.2234 215.309 43.837 215.884 44.6168C216.466 45.3967 216.773 46.282 216.805 47.2727H214.503Z" fill="#FCFDFD"/>
</g>
</svg>