<svg xmlns="http://www.w3.org/2000/svg" aria-hidden="true" style="position:absolute;width:0;height:0;overflow:hidden">
  <symbol id="icon-html5" viewBox="0 0 27.17 27.17">
    <path
      fill="currentColor"
      d="M1.609.008c.013.129.023.248.033.367.103 1.153.203 2.307.307 3.459.132 1.465.265 2.933.395 4.397.11 1.232.219 2.467.328 3.7.124 1.389.249 2.777.373 4.167.109 1.231.218 2.467.328 3.7.134 1.502.27 3.002.398 4.504.008.097.039.138.135.164 3.177.896 6.352 1.793 9.525 2.687.08.022.176.021.256 0 3.187-.894 6.373-1.789 9.56-2.682.109-.031.143-.078.15-.185.068-.837.146-1.673.219-2.509.082-.922.166-1.846.248-2.77.074-.826.146-1.65.221-2.477.084-.924.166-1.848.248-2.771.072-.825.146-1.649.221-2.476.082-.92.164-1.84.246-2.76.074-.828.146-1.656.223-2.486.082-.92.164-1.84.246-2.76.074-.838.148-1.678.227-2.517.021-.248.042-.5.066-.758C17.571.008 9.6.008 1.609.008Zm19.222 7.957H9.361c.09 1.033.179 2.056.267 3.082h10.938c-.027.217-.061.422-.08.629-.051.521-.1 1.043-.146 1.562-.084.943-.166 1.892-.248 2.835-.072.848-.145 1.691-.221 2.539-.047.535-.1 1.07-.145 1.604-.008.084-.062.086-.111.101-1.293.356-2.584.713-3.877 1.067-.709.197-1.417.396-2.127.591-.032.01-.076.004-.11-.007-2.006-.551-4.011-1.104-6.015-1.653-.092-.023-.094-.08-.1-.146-.051-.644-.102-1.283-.15-1.927-.067-.864-.135-1.729-.203-2.594-.002-.022-.002-.049-.004-.08h2.971c.025.281.052.562.076.838.044.49.088.979.13 1.472.004.056.021.078.075.094 1.076.287 2.15.578 3.228.867.038.011.084.006.123-.004 1.062-.285 2.123-.574 3.187-.856.064-.019.092-.048.098-.113.117-1.254.236-2.51.357-3.763 0-.004-.002-.009-.004-.023H7.332C6.596 11.049 6.326 8.029 6.055 5h15.057c-.091.988-.187 1.971-.281 2.965Z"
    />
  </symbol>
  <symbol id="icon-css3" viewBox="0 0 32 32">
    <path
      fill="currentColor"
      d="M24.235 6.519l-16.47-.004.266 3.277 12.653.002-.319 3.394h-8.298l.3 3.215h7.725l-.457 4.403-3.636 1.005-3.694-1.012-.235-2.637H8.808l.362 4.817 6.829 2.128 6.714-1.912 1.521-16.675ZM2.879 1.004h26.242l-2.387 26.946-10.763 3.045-10.703-3.047Z"
    />
  </symbol>
  <symbol id="icon-javascript" viewBox="0 0 32 32">
    <rect x="2" y="2" width="28" height="28" fill="#FFCA28" />
    <path
      fill="#3E3E3E"
      d="M19 25.2879 21.0615 23.9237C21.2231 24.4313 22.2462 25.6368 23.5385 25.6368 24.8308 25.6368 25.4308 24.931 25.4308 24.463 25.4308 23.1878 24.1112 22.7382 23.4774 22.5223 23.374 22.4871 23.289 22.4581 23.2308 22.4328 23.2009 22.4198 23.1558 22.4025 23.0979 22.3804 22.393 22.1111 19.7923 21.1175 19.7923 18.2373 19.7923 15.065 22.8538 14.7002 23.5462 14.7002 23.9991 14.7002 26.1769 14.7557 27.2615 16.7939L25.2615 18.1898C24.8231 17.3015 24.0946 17.0081 23.6462 17.0081 22.5385 17.0081 22.3077 17.8201 22.3077 18.1898 22.3077 19.227 23.5112 19.6919 24.5273 20.0844 24.7932 20.1871 25.0462 20.2848 25.2615 20.3866 26.3692 20.91 28 21.7666 28 24.463 28 25.8136 26.8672 28.0002 24.0154 28.0002 20.1846 28.0002 19.1692 25.7003 19 25.2879Z"
    />
    <path
      fill="#3E3E3E"
      d="M9 25.5587 11.1487 24.1953C11.317 24.7026 11.9713 25.638 12.9205 25.638 13.8698 25.638 14.3557 24.663 14.3557 24.1953V15.0002H16.9982V24.1953C17.041 25.4636 16.3376 28.0002 13.2332 28.0002 10.379 28.0002 9.19242 26.3039 9 25.5587Z"
    />
  </symbol>
  <symbol id="icon-wordpress" viewBox="0 0 48 48">
    <path
      fill="#00759D"
      d="M24 23.99925c0 9.499797 5.520173 17.709553 13.525923 21.599175L26.077565 14.232445C24.747023 17.216038 24 20.519141 24 23.99925Zm40.201556-1.210538c0-2.967093-1.066533-5.020657-1.978562-6.618207-1.216538-1.978562-2.358073-3.652614-2.358073-5.629676 0-2.206569 1.672552-4.260133 4.030626-4.260133.106503 0 .207006.013501.310509.019501C59.936923 2.388075 54.247245 0 48 0 39.614288 0 32.238557 4.302134 27.946923 10.816838c.564018.018001 1.095035.028501 1.545049.028501 2.509578 0 6.3962-.30451 6.3962-.30451 1.29304-.076502 1.446045 1.825557.153004 1.977062 0 0-1.30054.153005-2.746586.229507l8.739274 25.995813 5.253164-15.751993-3.738117-10.24382c-1.293041-.076502-2.518579-.229507-2.518579-.229507-1.29304-.076502-1.141535-2.053564.153005-1.977062 0 0 3.963124.30451 6.321198.30451 2.509578 0 6.396199-.30451 6.396199-.30451 1.294541-.076502 1.446046 1.825557.153005 1.977062 0 0-1.302041.153005-2.746586.229507l8.673271 25.797807 2.395575-7.99825c1.035033-3.321104 1.825557-5.704679 1.825557-7.758243ZM69.059908 12.48534c.103503.765024.162005 1.58405.162005 2.467577 0 2.434576-.456014 5.172162-1.825557 8.596769l-7.330729 21.194162C67.20135 40.584218 72 32.852977 72 23.9997c0-4.17313-1.066533-8.095753-2.940092-11.51436ZM48.421063 26.098716l-7.201725 20.924153C43.370405 47.655889 45.644476 48.0009 48 48.0009c2.794587 0 5.475171-.483015 7.969749-1.360542-.063002-.103504-.123004-.211507-.171005-.330011l-7.377681-20.211631Z"
      transform="translate(-24 -0.0009)"
    />
  </symbol>
  <symbol id="icon-php" viewBox="0 0 512 512">
    <path
      fill="currentColor"
      d="M401.054 224c3.714 4.115 4.595 11.181 2.653 21.19-2.029 10.425-5.935 17.862-11.723 22.32-5.793 4.458-14.602 6.687-26.432 6.687h-17.849l10.957-56.37h20.103c11.15 0 18.577 2.059 22.291 6.173ZM149.754 217.827h-20.103l-10.958 56.37h17.848c11.827 0 20.639-2.229 26.432-6.687 5.789-4.458 9.694-11.896 11.723-22.32 1.942-10.01 1.06-17.075-2.653-21.19-3.713-4.114-11.14-6.173-22.289-6.173ZM511.5 256c0 74.229-114.393 134.403-255.5 134.403S.5 330.229.5 256c0-74.228 114.393-134.403 255.5-134.403S511.5 181.772 511.5 256Zm-312.958 9.286c3.04-5.448 5.203-11.461 6.483-18.037 3.102-15.967.761-28.403-7.024-37.313-7.781-8.91-20.165-13.363-37.136-13.363h-56.423L78.265 331.261h29.342l6.958-35.805h25.134c11.087 0 20.21-1.164 27.372-3.497 7.161-2.329 13.669-6.233 19.528-11.719 4.915-4.52 8.894-9.502 11.943-14.954Zm103.272 30.17 12.181-62.682c2.479-12.747.619-21.971-5.572-27.664-6.196-5.688-17.449-8.537-33.768-8.537h-25.933l6.961-35.81h-29.11l-26.182 134.692h29.11l14.996-77.165h23.267c7.448 0 12.317 1.232 14.604 3.698 2.287 2.467 2.773 7.091 1.455 13.869l-11.581 59.598h29.572Zm125.197-85.519c-7.78-8.91-20.164-13.363-37.135-13.363h-56.424l-26.178 134.688h29.343l6.957-35.805h25.135c11.086 0 20.21-1.164 27.371-3.497 7.161-2.329 13.669-6.233 19.528-11.719 4.92-4.521 8.896-9.502 11.943-14.954 3.044-5.448 5.202-11.461 6.483-18.037 3.103-15.968.762-28.404-7.023-37.313Z"
    />
  </symbol>
  <symbol id="icon-message-circle" viewBox="0 0 24 24">
    <path
      fill="currentColor"
      fill-rule="evenodd"
      clip-rule="evenodd"
      d="M3.50002 12C3.50002 7.30558 7.3056 3.5 12 3.5C16.6944 3.5 20.5 7.30558 20.5 12C20.5 16.6944 16.6944 20.5 12 20.5C10.3278 20.5 8.77127 20.0182 7.45798 19.1861C7.21357 19.0313 6.91408 18.9899 6.63684 19.0726L3.75769 19.9319L4.84173 17.3953C4.96986 17.0955 4.94379 16.7521 4.77187 16.4751C3.9657 15.176 3.50002 13.6439 3.50002 12ZM12 1.5C6.20103 1.5 1.50002 6.20101 1.50002 12C1.50002 13.8381 1.97316 15.5683 2.80465 17.0727L1.08047 21.107C0.928048 21.4637 0.99561 21.8763 1.25382 22.1657C1.51203 22.4552 1.91432 22.5692 2.28599 22.4582L6.78541 21.1155C8.32245 21.9965 10.1037 22.5 12 22.5C17.799 22.5 22.5 17.799 22.5 12C22.5 6.20101 17.799 1.5 12 1.5ZM14.2925 14.1824L12.9783 15.1081C12.3628 14.7575 11.6823 14.2681 10.9997 13.5855C10.2901 12.8759 9.76402 12.1433 9.37612 11.4713L10.2113 10.7624C10.5697 10.4582 10.6678 9.94533 10.447 9.53028L9.38284 7.53028C9.23954 7.26097 8.98116 7.0718 8.68115 7.01654C8.38113 6.96129 8.07231 7.046 7.84247 7.24659L7.52696 7.52195C6.76823 8.18414 6.3195 9.2723 6.69141 10.3741C7.07698 11.5163 7.89983 13.314 9.58552 14.9997C11.3991 16.8133 13.2413 17.5275 14.3186 17.8049C15.1866 18.0283 16.008 17.7288 16.5868 17.2572L17.1783 16.7752C17.4313 16.5691 17.5678 16.2524 17.544 15.9269C17.5201 15.6014 17.3389 15.308 17.0585 15.1409L15.3802 14.1409C15.0412 13.939 14.6152 13.9552 14.2925 14.1824Z"
    />
  </symbol>
</svg>
