<svg xmlns="http://www.w3.org/2000/svg" style="display:none;">
  <symbol
    id="icon-calendar"
    viewBox="0 0 64 64"
    fill="none"
    stroke="currentColor"
    stroke-width="2"
    stroke-linecap="round"
    stroke-linejoin="round"
  >
    <rect x="10" y="14" width="44" height="36" rx="2" />
    <path d="M10 24h44" />
    <path d="M20 10v8" />
    <path d="M44 10v8" />
  </symbol>

  <symbol
    id="icon-code"
    viewBox="0 0 64 64"
    fill="none"
    stroke="currentColor"
    stroke-width="2"
    stroke-linecap="round"
    stroke-linejoin="round"
  >
    <path d="M24 18 L18 18 L18 46 L24 46" />
    <rect x="18" y="18" width="6" height="2" fill="currentColor" stroke="none" />
    <rect x="18" y="44" width="6" height="2" fill="currentColor" stroke="none" />
    <path d="M40 18 L46 18 L46 46 L40 46" />
    <rect x="40" y="18" width="6" height="2" fill="currentColor" stroke="none" />
    <rect x="40" y="44" width="6" height="2" fill="currentColor" stroke="none" />
    <rect
      x="28"
      y="24"
      width="2"
      height="4"
      fill="currentColor"
      stroke="none"
      transform="rotate(-20 29 26)"
    />
    <rect
      x="30"
      y="28"
      width="2"
      height="4"
      fill="currentColor"
      stroke="none"
      transform="rotate(-20 31 30)"
    />
    <rect
      x="32"
      y="32"
      width="2"
      height="4"
      fill="currentColor"
      stroke="none"
      transform="rotate(-20 33 34)"
    />
    <rect
      x="34"
      y="36"
      width="2"
      height="4"
      fill="currentColor"
      stroke="none"
      transform="rotate(-20 35 38)"
    />
  </symbol>

  <symbol
    id="icon-css"
    viewBox="0 0 64 64"
    fill="none"
    stroke="currentColor"
    stroke-width="2"
    stroke-linecap="round"
    stroke-linejoin="round"
  >
    <rect x="16" y="8" width="32" height="48" />
    <rect x="16" y="8" width="24" height="4" fill="currentColor" stroke="none" />
    <rect x="44" y="8" width="4" height="8" fill="currentColor" stroke="none" />
    <rect x="40" y="12" width="8" height="4" fill="currentColor" stroke="none" />
    <text
      x="32"
      y="36"
      fill="currentColor"
      stroke="none"
      text-anchor="middle"
      font-family="monospace"
      font-size="14"
      font-weight="700"
    >
      CSS
    </text>
  </symbol>

  <symbol
    id="icon-email"
    viewBox="0 0 64 64"
    fill="none"
    stroke="currentColor"
    stroke-width="2"
    stroke-linecap="round"
    stroke-linejoin="round"
  >
    <rect x="12" y="20" width="40" height="24" />
    <path d="M12 20 L32 34 L52 20" />
    <line x1="12" y1="44" x2="24" y2="34" />
    <line x1="52" y1="44" x2="40" y2="34" />
  </symbol>

  <symbol
    id="icon-figma"
    viewBox="0 0 64 64"
    fill="none"
    stroke="currentColor"
    stroke-width="2"
    stroke-linecap="round"
    stroke-linejoin="round"
  >
    <rect x="24" y="14" width="8" height="8" />
    <rect x="24" y="22" width="8" height="8" />
    <rect x="24" y="30" width="8" height="8" />
    <circle cx="36" cy="18" r="4" />
    <circle cx="36" cy="26" r="4" />
    <circle cx="28" cy="42" r="4" fill="currentColor" stroke="none" />
  </symbol>

  <symbol
    id="icon-gauge"
    viewBox="0 0 64 64"
    fill="none"
    stroke="currentColor"
    stroke-width="2"
    stroke-linecap="round"
    stroke-linejoin="round"
  >
    <path d="M16 38 Q16 20 32 20 Q48 20 48 38" />
    <rect x="18" y="38" width="2" height="4" fill="currentColor" stroke="none" />
    <rect x="30" y="18" width="4" height="2" fill="currentColor" stroke="none" />
    <rect x="44" y="38" width="2" height="4" fill="currentColor" stroke="none" />
    <line x1="32" y1="38" x2="42" y2="26" />
    <circle cx="32" cy="38" r="3" fill="currentColor" stroke="none" />
    <rect x="16" y="42" width="32" height="2" fill="currentColor" stroke="none" />
  </symbol>

  <symbol
    id="icon-gear"
    viewBox="0 0 64 64"
    fill="none"
    stroke="currentColor"
    stroke-width="2"
    stroke-linecap="round"
    stroke-linejoin="round"
  >
    <circle cx="32" cy="32" r="8" />
    <rect x="28" y="14" width="8" height="6" fill="currentColor" stroke="none" />
    <rect x="28" y="44" width="8" height="6" fill="currentColor" stroke="none" />
    <rect x="14" y="28" width="6" height="8" fill="currentColor" stroke="none" />
    <rect x="44" y="28" width="6" height="8" fill="currentColor" stroke="none" />
    <rect
      x="18"
      y="18"
      width="5"
      height="5"
      fill="currentColor"
      stroke="none"
      transform="rotate(45 20.5 20.5)"
    />
    <rect
      x="41"
      y="18"
      width="5"
      height="5"
      fill="currentColor"
      stroke="none"
      transform="rotate(45 43.5 20.5)"
    />
    <rect
      x="18"
      y="41"
      width="5"
      height="5"
      fill="currentColor"
      stroke="none"
      transform="rotate(45 20.5 43.5)"
    />
    <rect
      x="41"
      y="41"
      width="5"
      height="5"
      fill="currentColor"
      stroke="none"
      transform="rotate(45 43.5 43.5)"
    />
  </symbol>

  <symbol
    id="icon-handshake"
    viewBox="0 0 64 64"
    fill="none"
    stroke="currentColor"
    stroke-width="2"
    stroke-linecap="round"
    stroke-linejoin="round"
  >
    <rect x="12" y="28" width="8" height="12" />
    <rect x="20" y="24" width="6" height="4" fill="currentColor" stroke="none" />
    <rect x="44" y="28" width="8" height="12" />
    <rect x="38" y="24" width="6" height="4" fill="currentColor" stroke="none" />
    <rect x="26" y="28" width="12" height="8" />
    <rect x="28" y="24" width="3" height="4" fill="currentColor" stroke="none" />
    <rect x="33" y="24" width="3" height="4" fill="currentColor" stroke="none" />
  </symbol>

  <symbol
    id="icon-html"
    viewBox="0 0 64 64"
    fill="none"
    stroke="currentColor"
    stroke-width="2"
    stroke-linecap="round"
    stroke-linejoin="round"
  >
    <rect x="16" y="8" width="32" height="48" />
    <rect x="16" y="8" width="24" height="4" fill="currentColor" stroke="none" />
    <rect x="44" y="8" width="4" height="8" fill="currentColor" stroke="none" />
    <rect x="40" y="12" width="8" height="4" fill="currentColor" stroke="none" />
    <text
      x="32"
      y="36"
      fill="currentColor"
      stroke="none"
      text-anchor="middle"
      font-family="monospace"
      font-size="12"
      font-weight="700"
    >
      HTML
    </text>
  </symbol>

  <symbol
    id="icon-javascript"
    viewBox="0 0 64 64"
    fill="none"
    stroke="currentColor"
    stroke-width="2"
    stroke-linecap="round"
    stroke-linejoin="round"
  >
    <rect x="16" y="8" width="32" height="48" />
    <rect x="16" y="8" width="24" height="4" fill="currentColor" stroke="none" />
    <rect x="44" y="8" width="4" height="8" fill="currentColor" stroke="none" />
    <rect x="40" y="12" width="8" height="4" fill="currentColor" stroke="none" />
    <text
      x="32"
      y="36"
      fill="currentColor"
      stroke="none"
      text-anchor="middle"
      font-family="monospace"
      font-size="16"
      font-weight="700"
    >
      JS
    </text>
  </symbol>

  <symbol
    id="icon-js"
    viewBox="0 0 64 64"
    fill="none"
    stroke="currentColor"
    stroke-width="2"
    stroke-linecap="round"
    stroke-linejoin="round"
  >
    <rect x="16" y="8" width="32" height="48" />
    <rect x="16" y="8" width="24" height="4" fill="currentColor" stroke="none" />
    <rect x="44" y="8" width="4" height="8" fill="currentColor" stroke="none" />
    <rect x="40" y="12" width="8" height="4" fill="currentColor" stroke="none" />
    <text
      x="32"
      y="36"
      fill="currentColor"
      stroke="none"
      text-anchor="middle"
      font-family="monospace"
      font-size="16"
      font-weight="700"
    >
      JS
    </text>
  </symbol>

  <symbol
    id="icon-location"
    viewBox="0 0 64 64"
    fill="none"
    stroke="currentColor"
    stroke-width="2"
    stroke-linecap="round"
    stroke-linejoin="round"
  >
    <path d="M32 14 C24 14 18 20 18 28 C18 38 32 50 32 50 C32 50 46 38 46 28 C46 20 40 14 32 14 Z" />
    <circle cx="32" cy="28" r="5" fill="currentColor" stroke="none" />
  </symbol>

  <symbol
    id="icon-monitor"
    viewBox="0 0 64 64"
    fill="none"
    stroke="currentColor"
    stroke-width="2"
    stroke-linecap="round"
    stroke-linejoin="round"
  >
    <rect x="12" y="16" width="40" height="24" />
    <rect x="16" y="20" width="32" height="16" />
    <rect x="28" y="40" width="8" height="8" fill="currentColor" stroke="none" />
    <rect x="20" y="48" width="24" height="2" fill="currentColor" stroke="none" />
  </symbol>

  <symbol
    id="icon-phone"
    viewBox="0 0 64 64"
    fill="none"
    stroke="currentColor"
    stroke-width="2"
    stroke-linecap="round"
    stroke-linejoin="round"
  >
    <rect x="24" y="12" width="16" height="40" rx="2" />
    <line x1="24" y1="18" x2="40" y2="18" />
    <line x1="24" y1="46" x2="40" y2="46" />
    <circle cx="32" cy="48" r="1.5" fill="currentColor" stroke="none" />
  </symbol>

  <symbol
    id="icon-php"
    viewBox="0 0 64 64"
    fill="none"
    stroke="currentColor"
    stroke-width="2"
    stroke-linecap="round"
    stroke-linejoin="round"
  >
    <ellipse cx="32" cy="32" rx="20" ry="12" />
    <text
      x="32"
      y="37"
      fill="currentColor"
      stroke="none"
      text-anchor="middle"
      font-family="monospace"
      font-size="13"
      font-weight="700"
    >
      PHP
    </text>
  </symbol>

  <symbol
    id="icon-rocket"
    viewBox="0 0 64 64"
    fill="none"
    stroke="currentColor"
    stroke-width="2"
    stroke-linecap="round"
    stroke-linejoin="round"
  >
    <rect x="28" y="8" width="8" height="4" fill="currentColor" stroke="none" />
    <rect x="24" y="12" width="16" height="24" />
    <circle cx="32" cy="20" r="3" fill="currentColor" stroke="none" />
    <path d="M24 36 L16 44 L16 36 Z" fill="currentColor" stroke="none" />
    <path d="M40 36 L48 44 L48 36 Z" fill="currentColor" stroke="none" />
    <rect x="26" y="36" width="4" height="8" fill="currentColor" stroke="none" />
    <rect x="34" y="36" width="4" height="8" fill="currentColor" stroke="none" />
    <rect x="24" y="44" width="4" height="6" fill="currentColor" stroke="none" />
    <rect x="36" y="44" width="4" height="6" fill="currentColor" stroke="none" />
  </symbol>

  <symbol
    id="icon-server"
    viewBox="0 0 64 64"
    fill="none"
    stroke="currentColor"
    stroke-width="2"
    stroke-linecap="round"
    stroke-linejoin="round"
  >
    <rect x="14" y="16" width="36" height="10" />
    <rect x="14" y="28" width="36" height="10" />
    <rect x="14" y="40" width="36" height="10" />
    <circle cx="20" cy="21" r="2" fill="currentColor" stroke="none" />
    <circle cx="20" cy="33" r="2" fill="currentColor" stroke="none" />
    <circle cx="20" cy="45" r="2" fill="currentColor" stroke="none" />
    <rect x="26" y="20" width="8" height="2" fill="currentColor" stroke="none" />
    <rect x="26" y="32" width="8" height="2" fill="currentColor" stroke="none" />
    <rect x="26" y="44" width="8" height="2" fill="currentColor" stroke="none" />
  </symbol>

  <symbol
    id="icon-shop"
    viewBox="0 0 64 64"
    fill="none"
    stroke="currentColor"
    stroke-width="2"
    stroke-linecap="round"
    stroke-linejoin="round"
  >
    <path d="M14 22h36l-4 10H18z" />
    <path d="M18 32v18h28V32" />
    <path d="M26 50V40h12v10" />
    <path d="M20 18h24" />
  </symbol>

  <symbol
    id="icon-terminal"
    viewBox="0 0 64 64"
    fill="none"
    stroke="currentColor"
    stroke-width="2"
    stroke-linecap="round"
    stroke-linejoin="round"
  >
    <rect x="8" y="12" width="48" height="40" rx="2" />
    <polyline points="18 24 26 30 18 36" />
    <path d="M30 38h14" />
  </symbol>

  <symbol
    id="icon-user"
    viewBox="0 0 64 64"
    fill="none"
    stroke="currentColor"
    stroke-width="2"
    stroke-linecap="round"
    stroke-linejoin="round"
  >
    <circle cx="32" cy="24" r="8" />
    <path d="M18 52 C18 43 24 36 32 36 C40 36 46 43 46 52" />
    <line x1="18" y1="52" x2="46" y2="52" />
  </symbol>

  <symbol
    id="icon-wordpress"
    viewBox="0 0 64 64"
    fill="none"
    stroke="currentColor"
    stroke-width="2"
    stroke-linecap="round"
    stroke-linejoin="round"
  >
    <circle cx="32" cy="32" r="20" />
    <rect x="20" y="22" width="3" height="20" fill="currentColor" stroke="none" />
    <rect x="23" y="38" width="3" height="4" fill="currentColor" stroke="none" />
    <rect x="26" y="30" width="3" height="12" fill="currentColor" stroke="none" />
    <rect x="29" y="38" width="3" height="4" fill="currentColor" stroke="none" />
    <rect x="32" y="30" width="3" height="12" fill="currentColor" stroke="none" />
    <rect x="35" y="38" width="3" height="4" fill="currentColor" stroke="none" />
    <rect x="38" y="22" width="3" height="20" fill="currentColor" stroke="none" />
  </symbol>
  
  <symbol id="icon-partner" viewBox="0 0 64 64" fill="none" stroke="currentColor" stroke-width="2" stroke-linecap="round" stroke-linejoin="round">
    <circle cx="32" cy="22" r="7"/>

    <path d="M20 52C20 42 25 34 32 34C39 34 44 42 44 52"/>
    <line x1="20" y1="52" x2="44" y2="52"/>

    <circle cx="16" cy="28" r="5"/>
    <path d="M8 52C8 45 11 40 16 40C21 40 24 45 24 52"/>
    <line x1="8" y1="52" x2="20" y2="52"/>

    <circle cx="48" cy="28" r="5"/>
    <path d="M40 52C40 45 43 40 48 40C53 40 56 45 56 52"/>
    <line x1="44" y1="52" x2="56" y2="52"/>
  </symbol>

  <symbol id="icon-chat" viewBox="0 0 64 64" fill="none" stroke="currentColor" stroke-width="2" stroke-linecap="round" stroke-linejoin="round">
    <rect x="14" y="16" width="36" height="24"/>

    <path d="M24 40L24 48L32 40"/>

    <circle cx="24" cy="28" r="2" fill="currentColor" stroke="none"/>
    <circle cx="32" cy="28" r="2" fill="currentColor" stroke="none"/>
    <circle cx="40" cy="28" r="2" fill="currentColor" stroke="none"/>
  </symbol>
</svg>
