<!-- ===================================================== -->
<!-- SVG ICON SET - PORTFÓLIO TERMINAL IBM STYLE           -->
<!-- Uso: copiar e salvar cada SVG ou usar inline no HTML  -->
<!-- stroke=currentColor para herdar cor verde via CSS     -->
<!-- ===================================================== -->

<!-- MONITOR / SITE -->
<svg xmlns="http://www.w3.org/2000/svg" viewBox="0 0 64 64" width="64" height="64" fill="none" stroke="currentColor" stroke-width="2">
  <rect x="8" y="10" width="48" height="32" rx="2"/>
  <line x1="8" y1="36" x2="56" y2="36"/>
  <line x1="24" y1="52" x2="40" y2="52"/>
  <line x1="32" y1="42" x2="32" y2="52"/>
</svg>

<!-- ROCKET / LANDING PAGE -->
<svg xmlns="http://www.w3.org/2000/svg" viewBox="0 0 64 64" width="64" height="64" fill="none" stroke="currentColor" stroke-width="2">
  <path d="M38 10c10 4 16 18 16 18L38 42 22 26s6-14 16-16z"/>
  <circle cx="39" cy="24" r="3"/>
  <path d="M22 26l-8 2 6 6"/>
  <path d="M38 42l2 8 6-6"/>
  <path d="M16 46c4-8 10-10 10-10s-2 6-10 10z"/>
</svg>

<!-- WORDPRESS -->
<svg xmlns="http://www.w3.org/2000/svg" viewBox="0 0 64 64" width="64" height="64" fill="none" stroke="currentColor" stroke-width="2">
  <circle cx="32" cy="32" r="24"/>
  <path d="M20 22l8 24 5-16 5 16 8-24"/>
  <path d="M24 18c2 3 4 4 8 4"/>
</svg>

<!-- CODE / INTEGRAÇÕES -->
<svg xmlns="http://www.w3.org/2000/svg" viewBox="0 0 64 64" width="64" height="64" fill="none" stroke="currentColor" stroke-width="2">
  <polyline points="24,18 12,32 24,46"/>
  <polyline points="40,18 52,32 40,46"/>
  <line x1="36" y1="16" x2="28" y2="48"/>
</svg>

<!-- PERFORMANCE / GAUGE -->
<svg xmlns="http://www.w3.org/2000/svg" viewBox="0 0 64 64" width="64" height="64" fill="none" stroke="currentColor" stroke-width="2">
  <path d="M14 42a18 18 0 1 1 36 0"/>
  <line x1="32" y1="32" x2="44" y2="24"/>
  <circle cx="32" cy="32" r="2"/>
  <line x1="20" y1="40" x2="20" y2="36"/>
  <line x1="44" y1="40" x2="44" y2="36"/>
</svg>

<!-- SETTINGS / MANUTENÇÃO -->
<svg xmlns="http://www.w3.org/2000/svg" viewBox="0 0 64 64" width="64" height="64" fill="none" stroke="currentColor" stroke-width="2">
  <circle cx="32" cy="32" r="8"/>
  <path d="M32 14v6M32 44v6M14 32h6M44 32h6M20 20l4 4M40 40l4 4M44 20l-4 4M24 40l-4 4"/>
</svg>

<!-- USER -->
<svg xmlns="http://www.w3.org/2000/svg" viewBox="0 0 64 64" width="64" height="64" fill="none" stroke="currentColor" stroke-width="2">
  <circle cx="32" cy="22" r="8"/>
  <path d="M16 50c4-10 28-10 32 0"/>
</svg>

<!-- CALENDAR -->
<svg xmlns="http://www.w3.org/2000/svg" viewBox="0 0 64 64" width="64" height="64" fill="none" stroke="currentColor" stroke-width="2">
  <rect x="10" y="14" width="44" height="36" rx="2"/>
  <line x1="10" y1="24" x2="54" y2="24"/>
  <line x1="20" y1="10" x2="20" y2="18"/>
  <line x1="44" y1="10" x2="44" y2="18"/>
</svg>

<!-- HANDSHAKE / CLIENTES -->
<svg xmlns="http://www.w3.org/2000/svg" viewBox="0 0 64 64" width="64" height="64" fill="none" stroke="currentColor" stroke-width="2">
  <path d="M10 34l10-10 10 8 8-8 16 14"/>
  <path d="M22 38l6 6M30 34l6 6M38 30l6 6"/>
</svg>

<!-- TERMINAL -->
<svg xmlns="http://www.w3.org/2000/svg" viewBox="0 0 64 64" width="64" height="64" fill="none" stroke="currentColor" stroke-width="2">
  <rect x="8" y="12" width="48" height="40" rx="2"/>
  <polyline points="18,24 26,30 18,36"/>
  <line x1="30" y1="38" x2="44" y2="38"/>
</svg>

<!-- EMAIL -->
<svg xmlns="http://www.w3.org/2000/svg" viewBox="0 0 64 64" width="64" height="64" fill="none" stroke="currentColor" stroke-width="2">
  <rect x="10" y="18" width="44" height="28" rx="2"/>
  <polyline points="10,22 32,38 54,22"/>
</svg>

<!-- PHONE -->
<svg xmlns="http://www.w3.org/2000/svg" viewBox="0 0 64 64" width="64" height="64" fill="none" stroke="currentColor" stroke-width="2">
  <path d="M22 12l8 8-4 6c4 8 10 14 18 18l6-4 8 8-6 8c-28-6-42-20-48-48z"/>
</svg>

<!-- LOCATION -->
<svg xmlns="http://www.w3.org/2000/svg" viewBox="0 0 64 64" width="64" height="64" fill="none" stroke="currentColor" stroke-width="2">
  <path d="M32 54s14-14 14-26a14 14 0 1 0-28 0c0 12 14 26 14 26z"/>
  <circle cx="32" cy="28" r="4"/>
</svg>

<!-- SERVER / HOSTIA -->
<svg xmlns="http://www.w3.org/2000/svg" viewBox="0 0 64 64" width="64" height="64" fill="none" stroke="currentColor" stroke-width="2">
  <rect x="14" y="14" width="36" height="12"/>
  <rect x="14" y="30" width="36" height="12"/>
  <circle cx="20" cy="20" r="1"/>
  <circle cx="20" cy="36" r="1"/>
</svg>

<!-- SHOP / MAGENTO -->
<svg xmlns="http://www.w3.org/2000/svg" viewBox="0 0 64 64" width="64" height="64" fill="none" stroke="currentColor" stroke-width="2">
  <polyline points="18,22 22,22 26,42 46,42"/>
  <circle cx="30" cy="48" r="2"/>
  <circle cx="42" cy="48" r="2"/>
  <line x1="24" y1="30" x2="46" y2="30"/>
</svg>