<svg xmlns="http://www.w3.org/2000/svg" style="display:none;">
  <symbol id="icon-monitor" viewBox="0 0 64 64" fill="none" stroke="currentColor" stroke-width="2" stroke-linecap="round" stroke-linejoin="round">
    <rect x="10" y="12" width="44" height="30" rx="2" />
    <path d="M24 52h16" />
    <path d="M32 42v10" />
    <path d="M18 20h10" />
    <path d="M18 26h18" />
  </symbol>
  <symbol id="icon-rocket" viewBox="0 0 64 64" fill="none" stroke="currentColor" stroke-width="2" stroke-linecap="round" stroke-linejoin="round">
    <path d="M39 11c9 4 14 17 14 17L38 43 21 26s5-13 18-15z" />
    <circle cx="40" cy="24" r="3" />
    <path d="M21 26l-8 2 6 6" />
    <path d="M38 43l2 8 8-8" />
    <path d="M16 47c4-8 10-10 10-10s-2 6-10 10z" />
  </symbol>
  <symbol id="icon-wordpress" viewBox="0 0 64 64" fill="none" stroke="currentColor" stroke-width="2" stroke-linecap="round" stroke-linejoin="round">
    <circle cx="32" cy="32" r="24" />
    <path d="M20 22l8 24 5-16 5 16 8-24" />
    <path d="M24 18c2 3 4 4 8 4" />
  </symbol>
  <symbol id="icon-code" viewBox="0 0 64 64" fill="none" stroke="currentColor" stroke-width="2" stroke-linecap="round" stroke-linejoin="round">
    <polyline points="24 18 12 32 24 46" />
    <polyline points="40 18 52 32 40 46" />
    <path d="M36 16L28 48" />
  </symbol>
  <symbol id="icon-gauge" viewBox="0 0 64 64" fill="none" stroke="currentColor" stroke-width="2" stroke-linecap="round" stroke-linejoin="round">
    <path d="M14 42a18 18 0 1 1 36 0" />
    <path d="M32 32l12-8" />
    <circle cx="32" cy="32" r="2" />
    <path d="M20 40v-4" />
    <path d="M44 40v-4" />
  </symbol>
  <symbol id="icon-gear" viewBox="0 0 64 64" fill="none" stroke="white" stroke-width="2" stroke-linecap="round" stroke-linejoin="round">
    <circle cx="32" cy="32" r="8" />
    <path d="M32 14v6" />
    <path d="M32 44v6" />
    <path d="M14 32h6" />
    <path d="M44 32h6" />
    <path d="M20 20l4 4" />
    <path d="M40 40l4 4" />
    <path d="M44 20l-4 4" />
    <path d="M24 40l-4 4" />
  </symbol>
  <symbol id="icon-user" viewBox="0 0 64 64" fill="none" stroke="currentColor" stroke-width="2" stroke-linecap="round" stroke-linejoin="round">
    <circle cx="32" cy="22" r="8" />
    <path d="M16 50c4-10 28-10 32 0" />
  </symbol>
  <symbol id="icon-calendar" viewBox="0 0 64 64" fill="none" stroke="currentColor" stroke-width="2" stroke-linecap="round" stroke-linejoin="round">
    <rect x="10" y="14" width="44" height="36" rx="2" />
    <path d="M10 24h44" />
    <path d="M20 10v8" />
    <path d="M44 10v8" />
  </symbol>
  <symbol id="icon-handshake" viewBox="0 0 64 64" fill="none" stroke="currentColor" stroke-width="2" stroke-linecap="round" stroke-linejoin="round">
    <path d="M10 34l10-10 10 8 8-8 16 14" />
    <path d="M22 38l6 6" />
    <path d="M30 34l6 6" />
    <path d="M38 30l6 6" />
  </symbol>
  <symbol id="icon-terminal" viewBox="0 0 64 64" fill="none" stroke="currentColor" stroke-width="2" stroke-linecap="round" stroke-linejoin="round">
    <rect x="8" y="12" width="48" height="40" rx="2" />
    <polyline points="18 24 26 30 18 36" />
    <path d="M30 38h14" />
  </symbol>
  <symbol id="icon-email" viewBox="0 0 64 64" fill="none" stroke="currentColor" stroke-width="2" stroke-linecap="round" stroke-linejoin="round">
    <rect x="10" y="18" width="44" height="28" rx="2" />
    <polyline points="10 22 32 38 54 22" />
  </symbol>
  <symbol id="icon-phone" viewBox="0 0 64 64" fill="none" stroke="currentColor" stroke-width="2" stroke-linecap="round" stroke-linejoin="round">
    <path d="M22 12l8 8-4 6c4 8 10 14 18 18l6-4 8 8-6 8c-28-6-42-20-48-48z" />
  </symbol>
  <symbol id="icon-location" viewBox="0 0 64 64" fill="none" stroke="currentColor" stroke-width="2" stroke-linecap="round" stroke-linejoin="round">
    <path d="M32 54s14-14 14-26a14 14 0 1 0-28 0c0 12 14 26 14 26z" />
    <circle cx="32" cy="28" r="4" />
  </symbol>
  <symbol id="icon-server" viewBox="0 0 64 64" fill="none" stroke="currentColor" stroke-width="2" stroke-linecap="round" stroke-linejoin="round">
    <rect x="14" y="14" width="36" height="12" rx="2" />
    <rect x="14" y="30" width="36" height="12" rx="2" />
    <path d="M18 20h2" />
    <path d="M18 36h2" />
    <path d="M26 20h18" />
    <path d="M26 36h18" />
  </symbol>
  <symbol id="icon-shop" viewBox="0 0 64 64" fill="none" stroke="currentColor" stroke-width="2" stroke-linecap="round" stroke-linejoin="round">
    <path d="M14 22h36l-4 10H18z" />
    <path d="M18 32v18h28V32" />
    <path d="M26 50V40h12v10" />
    <path d="M20 18h24" />
  </symbol>
</svg>
